<svg width="39" height="39" xmlns="http://www.w3.org/2000/svg" xmlns:xlink="http://www.w3.org/1999/xlink" xml:space="preserve" overflow="hidden"><g transform="translate(-19 -479)"><path d="M45.2796 494.133C42.1868 487.942 31.7662 489.304 30.2778 496.105 29.3797 500.209 33.1666 503.081 33.6557 506.924L42.3369 506.924C42.5922 505.896 43.1115 504.674 43.4712 503.923 44.2187 502.362 45.276 501.342 45.6774 499.601 46.0593 497.945 46.0151 495.605 45.2796 494.133Z" stroke="#000000" stroke-width="2.13449" stroke-linecap="round" stroke-linejoin="round" stroke-miterlimit="1.5" fill="none"/><path d="M33.4966 512.161C33.4942 510.976 33.436 509.79 33.4565 508.604 33.4647 508.135 33.3845 507.561 33.7908 507.233 34.384 506.754 35.2665 506.684 36.0027 506.666 37.3826 506.633 38.7732 506.645 40.1545 506.647 40.7836 506.649 41.7224 506.539 42.2894 506.852 42.8291 507.149 42.9657 507.958 43.0264 508.505 43.1428 509.553 43.4525 511.893 42.563 512.704 42.0027 513.215 41.1288 513.322 40.4114 513.41 38.5081 513.644 33.4995 513.598 33.4966 512.161Z" stroke="#000000" stroke-width="2.13449" stroke-linecap="round" stroke-linejoin="round" stroke-miterlimit="1.5" fill="none" fill-rule="evenodd"/><path d="M38.5686 513.51C38.5842 514.156 38.5918 514.804 38.541 515.449" stroke="#000000" stroke-width="2.13449" stroke-linecap="round" stroke-linejoin="round" stroke-miterlimit="1.5" fill="none"/><path d="M23.5186 503.658C24.1957 503.301 24.9028 503.007 25.5872 502.665" stroke="#000000" stroke-width="2.13449" stroke-linecap="round" stroke-linejoin="round" stroke-miterlimit="1.5" fill="none"/><path d="M23.5186 489.769C24.2744 490.249 24.9974 490.779 25.755 491.255" stroke="#000000" stroke-width="2.13449" stroke-linecap="round" stroke-linejoin="round" stroke-miterlimit="1.5" fill="none"/><path d="M38.4368 484.08C38.4103 483.13 38.4161 482.186 38.4465 481.236" stroke="#000000" stroke-width="2.13449" stroke-linecap="round" stroke-linejoin="round" stroke-miterlimit="1.5" fill="none"/><path d="M50.1377 490.555C51.0866 489.927 52.0637 489.337 53.0288 488.734" stroke="#000000" stroke-width="2.13449" stroke-linecap="round" stroke-linejoin="round" stroke-miterlimit="1.5" fill="none"/><path d="M48.4824 503.509C49.2141 504.164 49.9489 504.813 50.6571 505.494" stroke="#000000" stroke-width="2.13449" stroke-linecap="round" stroke-linejoin="round" stroke-miterlimit="1.5" fill="none"/></g></svg>