<svg width="39" height="39" xmlns="http://www.w3.org/2000/svg" xmlns:xlink="http://www.w3.org/1999/xlink" xml:space="preserve" overflow="hidden"><g transform="translate(-314 -403)"><path d="M349.815 422.598C342.344 430.78 329.715 434.006 320.759 426.17 318.983 424.617 317.454 422.75 316.253 420.72 318.827 416.938 321.563 413.513 325.761 411.466 334.953 406.985 345.934 412.223 350.404 420.963" stroke="#000000" stroke-width="2.13444" stroke-linecap="round" stroke-linejoin="round" stroke-miterlimit="1.5" fill="none"/><path d="M336.123 416.146C334.849 415.495 333.487 415.27 332.115 415.789 329.013 416.963 327.985 421.21 330.211 423.642 333.543 427.282 339.872 423.037 338.166 418.588" fill-rule="evenodd"/><path d="M336.123 416.146C334.849 415.495 333.487 415.27 332.115 415.789 329.013 416.963 327.985 421.21 330.211 423.642 333.543 427.282 339.872 423.037 338.166 418.588" stroke="#000000" stroke-width="2.13444" stroke-linecap="round" stroke-linejoin="round" stroke-miterlimit="1.5" fill="none"/><path d="M316.863 427.876C317.655 426.84 318.434 425.767 319.299 424.79" stroke="#000000" stroke-width="2.13444" stroke-linecap="round" stroke-linejoin="round" stroke-miterlimit="1.5" fill="none"/><path d="M321.095 431.14C321.777 430.085 322.536 429.084 323.29 428.08" stroke="#000000" stroke-width="2.13444" stroke-linecap="round" stroke-linejoin="round" stroke-miterlimit="1.5" fill="none"/><path d="M326.443 433.599C327.161 432.452 327.928 431.32 328.736 430.233" stroke="#000000" stroke-width="2.13444" stroke-linecap="round" stroke-linejoin="round" stroke-miterlimit="1.5" fill="none"/><path d="M333.311 434.669C334.157 433.239 334.926 431.749 335.919 430.411" stroke="#000000" stroke-width="2.13444" stroke-linecap="round" stroke-linejoin="round" stroke-miterlimit="1.5" fill="none"/><path d="M340.272 433.479C341.251 431.527 342.211 429.482 343.441 427.669" stroke="#000000" stroke-width="2.13444" stroke-linecap="round" stroke-linejoin="round" stroke-miterlimit="1.5" fill="none"/><path d="M349.85 422.597C348.903 424.556 347.975 426.525 347.029 428.485" stroke="#000000" stroke-width="2.13444" stroke-linecap="round" stroke-linejoin="round" stroke-miterlimit="1.5" fill="none"/></g></svg>